<svg width="270" height="270" viewBox="0 0 270 270" fill="none" xmlns="http://www.w3.org/2000/svg">
<g clip-path="url(#clip0_238_2727)">
<path d="M42 30C38.8174 30 35.7652 31.2643 33.5147 33.5147C31.2643 35.7652 30 38.8174 30 42V90H90V30H42ZM75 75H45V45H75V75Z" fill="#101828"/>
<path d="M30 228C30 231.183 31.2643 234.235 33.5147 236.485C35.7652 238.736 38.8174 240 42 240H90V180H30V228ZM45 195H75V225H45V195Z" fill="#101828"/>
<path d="M180 240H228C231.183 240 234.235 238.736 236.485 236.485C238.736 234.235 240 231.183 240 228V180H180V240ZM195 195H225V225H195V195Z" fill="#101828"/>
<path d="M228 30H180V90H240V42C240 38.8174 238.736 35.7652 236.485 33.5147C234.235 31.2643 231.183 30 228 30ZM225 75H195V45H225V75Z" fill="#101828"/>
<path d="M150 75V60H120V90H135V75H150Z" fill="#101828"/>
<path d="M105 90H90V105H105V90Z" fill="#101828"/>
<path d="M135 105H105V120H135V105Z" fill="#101828"/>
<path d="M150 45V60H165V30H105V60H120V45H150Z" fill="#101828"/>
<path d="M45 105H30V135H45V105Z" fill="#101828"/>
<path d="M90 120V135H75V105H60V135H45V150H30V165H60V150H75V165H90V150H105V120H90Z" fill="#101828"/>
<path d="M150 120H165V135H180V120H195V105H165V75H150V90H135V105H150V120Z" fill="#101828"/>
<path d="M135 225H105V240H165V225H150V210H135V225Z" fill="#101828"/>
<path d="M165 150V135H150V120H135V135H120V150H135V165H150V150H165Z" fill="#101828"/>
<path d="M240 150H225V165H240V150Z" fill="#101828"/>
<path d="M210 150H165V165H210V150Z" fill="#101828"/>
<path d="M225 105H210V120H195V135H210V150H225V135H240V120H225V105Z" fill="#101828"/>
<path d="M165 165H150V210H165V165Z" fill="#101828"/>
<path d="M105 210H120V195H135V180H120V150H105V210Z" fill="#101828"/>
</g>
<defs>
<clipPath id="clip0_238_2727">
<rect width="270" height="270" fill="white"/>
</clipPath>
</defs>
</svg>
