<svg width="24" height="24" viewBox="0 0 24 24" fill="none" xmlns="http://www.w3.org/2000/svg">
<path d="M11.9999 21.5999C13.8986 21.5999 15.7547 21.0369 17.3334 19.982C18.9121 18.9272 20.1425 17.4278 20.8691 15.6737C21.5957 13.9195 21.7859 11.9893 21.4154 10.127C21.045 8.26482 20.1307 6.55427 18.7881 5.21168C17.4455 3.8691 15.735 2.95479 13.8728 2.58437C12.0105 2.21395 10.0803 2.40406 8.32614 3.13066C6.57197 3.85726 5.07265 5.08772 4.01779 6.66643C2.96293 8.24514 2.3999 10.1012 2.3999 11.9999C2.4029 14.5451 3.41529 16.9851 5.21499 18.7848C7.01469 20.5845 9.45474 21.5969 11.9999 21.5999ZM11.9999 4.14536C13.5534 4.14536 15.072 4.60602 16.3636 5.46909C17.6553 6.33216 18.6621 7.55887 19.2566 8.9941C19.851 10.4293 20.0066 12.0086 19.7035 13.5322C19.4005 15.0559 18.6524 16.4554 17.5539 17.5539C16.4554 18.6524 15.0559 19.4005 13.5322 19.7035C12.0086 20.0066 10.4293 19.8511 8.9941 19.2566C7.55887 18.6621 6.33215 17.6553 5.46909 16.3637C4.60602 15.072 4.14536 13.5534 4.14536 11.9999C4.14767 9.91746 4.97594 7.92097 6.44845 6.44845C7.92096 4.97594 9.91745 4.14767 11.9999 4.14536ZM8.7647 14.0011L10.7659 11.9999L8.7647 9.99874C8.60573 9.83414 8.51776 9.61369 8.51975 9.38486C8.52174 9.15604 8.61352 8.93715 8.77533 8.77534C8.93714 8.61353 9.15603 8.52174 9.38486 8.51975C9.61369 8.51777 9.83414 8.60573 9.99874 8.76471L11.9999 10.7659L14.0011 8.76471C14.1657 8.60573 14.3861 8.51777 14.6149 8.51975C14.8438 8.52174 15.0627 8.61353 15.2245 8.77534C15.3863 8.93715 15.4781 9.15604 15.48 9.38486C15.482 9.61369 15.3941 9.83414 15.2351 9.99874L13.2339 11.9999L15.2351 14.0011C15.3185 14.0816 15.3849 14.1779 15.4307 14.2844C15.4764 14.3908 15.5005 14.5053 15.5015 14.6212C15.5025 14.7371 15.4804 14.852 15.4365 14.9593C15.3927 15.0665 15.3279 15.164 15.2459 15.2459C15.164 15.3279 15.0665 15.3927 14.9593 15.4365C14.852 15.4804 14.7371 15.5025 14.6212 15.5015C14.5053 15.5005 14.3908 15.4764 14.2843 15.4307C14.1779 15.3849 14.0816 15.3185 14.0011 15.2351L11.9999 13.2339L9.99874 15.2351C9.83414 15.3941 9.61369 15.482 9.38486 15.4801C9.15603 15.4781 8.93714 15.3863 8.77533 15.2245C8.61352 15.0627 8.52174 14.8438 8.51975 14.6149C8.51776 14.3861 8.60573 14.1657 8.7647 14.0011Z" fill="black"/>
</svg>
