<svg width="20" height="20" viewBox="0 0 20 20" fill="none" xmlns="http://www.w3.org/2000/svg">
<path d="M10 18C11.5822 18 13.129 17.5308 14.4446 16.6518C15.7602 15.7727 16.7855 14.5233 17.391 13.0615C17.9965 11.5997 18.155 9.99113 17.8463 8.43928C17.5376 6.88743 16.7757 5.46197 15.6569 4.34315C14.538 3.22433 13.1126 2.4624 11.5607 2.15372C10.0089 1.84504 8.40034 2.00347 6.93853 2.60897C5.47672 3.21447 4.22729 4.23985 3.34824 5.55544C2.46919 6.87103 2 8.41775 2 10C2.0025 12.121 2.84616 14.1543 4.34591 15.6541C5.84566 17.1538 7.87903 17.9975 10 18ZM10 3.45455C11.2946 3.45455 12.5601 3.83843 13.6365 4.55766C14.7128 5.27688 15.5518 6.29914 16.0472 7.49516C16.5426 8.69119 16.6722 10.0073 16.4197 11.277C16.1671 12.5466 15.5437 13.7129 14.6283 14.6283C13.7129 15.5437 12.5466 16.1671 11.277 16.4197C10.0073 16.6722 8.69119 16.5426 7.49516 16.0472C6.29914 15.5518 5.27688 14.7129 4.55765 13.6365C3.83843 12.5601 3.45455 11.2946 3.45455 10C3.45647 8.26463 4.1467 6.60089 5.37379 5.37379C6.60088 4.1467 8.26463 3.45647 10 3.45455ZM7.304 11.6676L8.97163 10L7.304 8.33237C7.17152 8.1952 7.09822 8.01149 7.09987 7.8208C7.10153 7.63011 7.17802 7.4477 7.31286 7.31286C7.4477 7.17802 7.63011 7.10153 7.8208 7.09988C8.01149 7.09822 8.1952 7.17152 8.33236 7.304L10 8.97164L11.6676 7.304C11.8048 7.17152 11.9885 7.09822 12.1792 7.09988C12.3699 7.10153 12.5523 7.17802 12.6871 7.31286C12.822 7.4477 12.8985 7.63011 12.9001 7.8208C12.9018 8.01149 12.8285 8.1952 12.696 8.33237L11.0284 10L12.696 11.6676C12.7655 11.7347 12.8209 11.815 12.859 11.9037C12.8971 11.9924 12.9172 12.0879 12.918 12.1844C12.9188 12.281 12.9004 12.3768 12.8639 12.4661C12.8273 12.5555 12.7733 12.6367 12.705 12.705C12.6367 12.7733 12.5555 12.8273 12.4661 12.8639C12.3768 12.9004 12.281 12.9188 12.1844 12.918C12.0879 12.9172 11.9924 12.8971 11.9037 12.859C11.815 12.8209 11.7347 12.7655 11.6676 12.696L10 11.0284L8.33236 12.696C8.1952 12.8285 8.01149 12.9018 7.8208 12.9001C7.63011 12.8985 7.4477 12.822 7.31286 12.6871C7.17802 12.5523 7.10153 12.3699 7.09987 12.1792C7.09822 11.9885 7.17152 11.8048 7.304 11.6676Z" fill="#B70202"/>
</svg>