<svg width="24" height="24" viewBox="0 0 24 24" fill="none" xmlns="http://www.w3.org/2000/svg">
<path d="M5.625 21C5.32663 21 5.04048 20.8815 4.8295 20.6705C4.61853 20.4595 4.5 20.1734 4.5 19.875C4.5 19.5766 4.61853 19.2905 4.8295 19.0795C5.04048 18.8685 5.32663 18.75 5.625 18.75H18.375C18.6734 18.75 18.9595 18.8685 19.1705 19.0795C19.3815 19.2905 19.5 19.5766 19.5 19.875C19.5 20.1734 19.3815 20.4595 19.1705 20.6705C18.9595 20.8815 18.6734 21 18.375 21H5.625ZM12.795 16.92C12.5841 17.1307 12.2981 17.249 12 17.249C11.7019 17.249 11.4159 17.1307 11.205 16.92L6.33 12.045C6.13128 11.8317 6.0231 11.5497 6.02824 11.2582C6.03338 10.9668 6.15145 10.6887 6.35757 10.4826C6.56369 10.2764 6.84176 10.1584 7.13322 10.1532C7.42467 10.1481 7.70674 10.2563 7.92 10.455L10.875 13.41V4.125C10.875 3.82663 10.9935 3.54048 11.2045 3.32951C11.4155 3.11853 11.7016 3 12 3C12.2984 3 12.5845 3.11853 12.7955 3.32951C13.0065 3.54048 13.125 3.82663 13.125 4.125V13.41L16.08 10.455C16.183 10.3445 16.3072 10.2558 16.4452 10.1943C16.5832 10.1328 16.7322 10.0998 16.8832 10.0971C17.0343 10.0944 17.1843 10.1222 17.3244 10.1788C17.4645 10.2354 17.5917 10.3196 17.6986 10.4264C17.8054 10.5333 17.8896 10.6605 17.9462 10.8006C18.0028 10.9407 18.0306 11.0907 18.0279 11.2418C18.0252 11.3928 17.9922 11.5418 17.9307 11.6798C17.8692 11.8178 17.7805 11.942 17.67 12.045L12.795 16.92Z" fill="black"/>
</svg>
