<svg width="24" height="24" viewBox="0 0 24 24" fill="none" xmlns="http://www.w3.org/2000/svg">
<path d="M17.5328 16.7615V15.0668L22.0328 17.7668L17.5328 20.4668V18.5858C16.1571 18.3888 14.8552 17.8411 13.7524 16.9955C12.6495 16.1499 11.7828 15.0347 11.2355 13.7573L11.2328 13.7528L11.2301 13.7582C10.6056 15.2151 9.56733 16.4567 8.244 17.3292C6.92066 18.2017 5.3704 18.6668 3.78531 18.6668H3.13281V16.8668H3.78531C5.0183 16.8668 6.22417 16.5049 7.25348 15.8261C8.28279 15.1473 9.09029 14.1814 9.57591 13.0481L10.2536 11.4668L9.57591 9.8855C9.09029 8.75217 8.28279 7.78626 7.25348 7.10746C6.22417 6.42867 5.0183 6.06683 3.78531 6.0668H3.13281V4.2668H3.78531C5.3705 4.26687 6.92083 4.73208 8.24418 5.60476C9.56753 6.47745 10.6057 7.71926 11.2301 9.1763L11.2328 9.1808L11.2355 9.1754C11.7829 7.89812 12.6497 6.78314 13.7525 5.93768C14.8554 5.09223 16.1572 4.54471 17.5328 4.3478V2.4668L22.0328 5.1668L17.5328 7.8668V6.1721C16.513 6.36105 15.5556 6.79885 14.7457 7.44664C13.9357 8.09442 13.2982 8.93217 12.8897 9.8855L12.212 11.4668L12.8897 13.0481C13.2982 14.0014 13.9357 14.8392 14.7457 15.487C15.5556 16.1347 16.513 16.5725 17.5328 16.7615Z" fill="black"/>
</svg>
