<svg width="48" height="48" viewBox="0 0 48 48" fill="none" xmlns="http://www.w3.org/2000/svg">
<g clip-path="url(#clip0_340_328)">
<path d="M24 48C37.2548 48 48 37.2548 48 24C48 10.7452 37.2548 0 24 0C10.7452 0 0 10.7452 0 24C0 37.2548 10.7452 48 24 48Z" fill="#EDF6F8"/>
<path d="M17.625 15C17.3266 15 17.0405 15.1185 16.8295 15.3295C16.6185 15.5405 16.5 15.8266 16.5 16.125C16.5 16.4234 16.6185 16.7095 16.8295 16.9205C17.0405 17.1315 17.3266 17.25 17.625 17.25H30.375C30.6734 17.25 30.9595 17.1315 31.1705 16.9205C31.3815 16.7095 31.5 16.4234 31.5 16.125C31.5 15.8266 31.3815 15.5405 31.1705 15.3295C30.9595 15.1185 30.6734 15 30.375 15H17.625ZM24.795 19.08C24.5841 18.8693 24.2981 18.751 24 18.751C23.7019 18.751 23.4159 18.8693 23.205 19.08L18.33 23.955C18.1313 24.1683 18.0231 24.4503 18.0282 24.7418C18.0334 25.0332 18.1514 25.3113 18.3576 25.5174C18.5637 25.7236 18.8418 25.8416 19.1332 25.8468C19.4247 25.8519 19.7067 25.7437 19.92 25.545L22.875 22.59V31.875C22.875 32.1734 22.9935 32.4595 23.2045 32.6705C23.4155 32.8815 23.7016 33 24 33C24.2984 33 24.5845 32.8815 24.7955 32.6705C25.0065 32.4595 25.125 32.1734 25.125 31.875V22.59L28.08 25.545C28.183 25.6555 28.3072 25.7442 28.4452 25.8057C28.5832 25.8672 28.7322 25.9002 28.8832 25.9029C29.0343 25.9056 29.1843 25.8778 29.3244 25.8212C29.4645 25.7646 29.5917 25.6804 29.6986 25.5736C29.8054 25.4667 29.8896 25.3395 29.9462 25.1994C30.0028 25.0593 30.0306 24.9093 30.0279 24.7582C30.0252 24.6072 29.9922 24.4582 29.9307 24.3202C29.8692 24.1822 29.7805 24.058 29.67 23.955L24.795 19.08Z" fill="#1A89A1"/>
</g>
<defs>
<clipPath id="clip0_340_328">
<rect width="48" height="48" fill="white"/>
</clipPath>
</defs>
</svg>
